<svg xmlns="http://www.w3.org/2000/svg" viewBox="-4 -4 40 40">
  <!-- Classic Space Invaders Crab Alien - Symmetrical with padding -->
  <rect fill="#000000" x="-4" y="-4" width="40" height="40"/>
  <!-- Row 1: Antennae -->
  <rect fill="#00ff00" x="4" y="2" width="2" height="2"/>
  <rect fill="#00ff00" x="26" y="2" width="2" height="2"/>
  <!-- Row 2: Antennae inner -->
  <rect fill="#00ff00" x="6" y="4" width="2" height="2"/>
  <rect fill="#00ff00" x="24" y="4" width="2" height="2"/>
  <!-- Row 3: Top of head -->
  <rect fill="#00ff00" x="8" y="6" width="16" height="2"/>
  <!-- Row 4: Head wider -->
  <rect fill="#00ff00" x="4" y="8" width="24" height="2"/>
  <!-- Row 5: Full width -->
  <rect fill="#00ff00" x="2" y="10" width="28" height="2"/>
  <!-- Row 6: Eyes row -->
  <rect fill="#00ff00" x="2" y="12" width="6" height="2"/>
  <rect fill="#00ff00" x="12" y="12" width="8" height="2"/>
  <rect fill="#00ff00" x="24" y="12" width="6" height="2"/>
  <!-- Row 7: Full body -->
  <rect fill="#00ff00" x="2" y="14" width="28" height="2"/>
  <!-- Row 8: Body narrower -->
  <rect fill="#00ff00" x="4" y="16" width="24" height="2"/>
  <!-- Row 9: Leg tops -->
  <rect fill="#00ff00" x="4" y="18" width="4" height="2"/>
  <rect fill="#00ff00" x="10" y="18" width="4" height="2"/>
  <rect fill="#00ff00" x="18" y="18" width="4" height="2"/>
  <rect fill="#00ff00" x="24" y="18" width="4" height="2"/>
  <!-- Row 10: Legs middle -->
  <rect fill="#00ff00" x="2" y="20" width="4" height="2"/>
  <rect fill="#00ff00" x="10" y="20" width="4" height="2"/>
  <rect fill="#00ff00" x="18" y="20" width="4" height="2"/>
  <rect fill="#00ff00" x="26" y="20" width="4" height="2"/>
  <!-- Row 11: Feet - symmetrical -->
  <rect fill="#00ff00" x="0" y="22" width="4" height="2"/>
  <rect fill="#00ff00" x="12" y="22" width="2" height="2"/>
  <rect fill="#00ff00" x="18" y="22" width="2" height="2"/>
  <rect fill="#00ff00" x="28" y="22" width="4" height="2"/>
</svg>
